<svg xmlns="http://www.w3.org/2000/svg" xmlns:xlink="http://www.w3.org/1999/xlink" width="500" zoomAndPan="magnify" viewBox="0 0 375 374.999991" height="500" preserveAspectRatio="xMidYMid meet" version="1.0"><defs><g/></defs><g fill="#ffffff" fill-opacity="1"><g transform="translate(27.691409, 238.195122)"><g><path d="M 26.609375 -77.75 L 3.65625 -77.75 L 3.65625 -89.703125 L 63.34375 -89.703125 L 63.34375 -77.75 L 40.15625 -77.75 L 40.15625 0 L 26.609375 0 Z M 26.609375 -77.75 "/></g></g></g><g fill="#5bc0be" fill-opacity="1"><g transform="translate(94.687498, 238.195122)"><g><path d="M 24.78125 1.703125 L 1.59375 -56.015625 L 16.46875 -56.015625 L 28.4375 -20.375 L 31.125 -11.71875 L 33.8125 -20.375 L 46.375 -56.015625 L 60.78125 -56.015625 L 26.359375 30.75 L 12.6875 30.75 Z M 24.78125 1.703125 "/></g></g></g><g fill="#ffffff" fill-opacity="1"><g transform="translate(155.332025, 238.195122)"><g><path d="M 34.78125 1.21875 C 29.25 1.21875 24.265625 0.0195312 19.828125 -2.375 C 15.398438 -4.78125 11.882812 -8.238281 9.28125 -12.75 C 6.675781 -17.269531 5.375 -22.582031 5.375 -28.6875 C 5.375 -34.457031 6.570312 -39.519531 8.96875 -43.875 C 11.375 -48.226562 14.75 -51.582031 19.09375 -53.9375 C 23.445312 -56.300781 28.472656 -57.484375 34.171875 -57.484375 C 38.484375 -57.484375 42.207031 -56.929688 45.34375 -55.828125 C 48.476562 -54.734375 50.9375 -53.375 52.71875 -51.75 L 46.859375 -41.125 C 43.441406 -44.539062 39.578125 -46.25 35.265625 -46.25 C 30.054688 -46.25 26.085938 -44.660156 23.359375 -41.484375 C 20.640625 -38.316406 19.28125 -34.085938 19.28125 -28.796875 C 19.28125 -22.773438 20.679688 -18.097656 23.484375 -14.765625 C 26.296875 -11.429688 30.222656 -9.765625 35.265625 -9.765625 C 37.796875 -9.765625 40.257812 -10.128906 42.65625 -10.859375 C 45.050781 -11.585938 46.898438 -12.441406 48.203125 -13.421875 L 52.96875 -4.15625 C 51.175781 -2.769531 48.671875 -1.523438 45.453125 -0.421875 C 42.242188 0.671875 38.6875 1.21875 34.78125 1.21875 Z M 34.78125 1.21875 "/></g></g></g><g fill="#ffffff" fill-opacity="1"><g transform="translate(212.202234, 238.195122)"><g><path d="M 9.28125 -89.703125 L 22.09375 -89.703125 L 22.09375 -56.015625 L 21.609375 -45.640625 C 23.148438 -49.054688 25.628906 -51.882812 29.046875 -54.125 C 32.460938 -56.363281 36.445312 -57.484375 41 -57.484375 C 46.78125 -57.484375 51.21875 -56.28125 54.3125 -53.875 C 57.40625 -51.476562 59.476562 -48.125 60.53125 -43.8125 C 61.59375 -39.5 62.125 -33.882812 62.125 -26.96875 L 62.125 0 L 49.0625 0 L 49.0625 -27.09375 C 49.0625 -31.8125 48.796875 -35.515625 48.265625 -38.203125 C 47.734375 -40.890625 46.675781 -42.921875 45.09375 -44.296875 C 43.507812 -45.679688 41.210938 -46.375 38.203125 -46.375 C 35.765625 -46.375 33.300781 -45.640625 30.8125 -44.171875 C 28.332031 -42.710938 26.28125 -40.578125 24.65625 -37.765625 C 23.03125 -34.960938 22.21875 -31.648438 22.21875 -27.828125 L 22.21875 0 L 9.28125 0 Z M 9.28125 -89.703125 "/></g></g></g><g fill="#ffffff" fill-opacity="1"><g transform="translate(282.374699, 238.195122)"><g><path d="M 35.15625 1.21875 C 28.476562 1.21875 22.898438 -0.101562 18.421875 -2.75 C 13.953125 -5.394531 10.660156 -8.929688 8.546875 -13.359375 C 6.429688 -17.796875 5.375 -22.660156 5.375 -27.953125 C 5.375 -33.890625 6.613281 -39.09375 9.09375 -43.5625 C 11.570312 -48.039062 15.007812 -51.476562 19.40625 -53.875 C 23.800781 -56.28125 28.765625 -57.484375 34.296875 -57.484375 C 42.921875 -57.484375 49.328125 -55.101562 53.515625 -50.34375 C 57.703125 -45.582031 59.796875 -38.890625 59.796875 -30.265625 C 59.796875 -28.066406 59.675781 -25.789062 59.4375 -23.4375 L 19.15625 -23.4375 C 20.050781 -18.46875 21.820312 -14.882812 24.46875 -12.6875 C 27.113281 -10.488281 30.796875 -9.390625 35.515625 -9.390625 C 39.421875 -9.390625 42.632812 -9.710938 45.15625 -10.359375 C 47.675781 -11.015625 49.992188 -11.914062 52.109375 -13.0625 L 56.140625 -3.65625 C 54.109375 -2.351562 51.34375 -1.210938 47.84375 -0.234375 C 44.34375 0.734375 40.113281 1.21875 35.15625 1.21875 Z M 46.984375 -32.59375 C 47.066406 -37.632812 45.96875 -41.191406 43.6875 -43.265625 C 41.414062 -45.335938 38.160156 -46.375 33.921875 -46.375 C 25.378906 -46.375 20.457031 -41.78125 19.15625 -32.59375 Z M 46.984375 -32.59375 "/></g></g></g></svg>